# xmcd
#
# Track frame offsets: 
#        150
#        19686
#        37688
#        55257
#        77944
#        92396
#        105467
#        114602
#        131232
#        152261
#        162843
#        180049
#        197279
#        217945
#        232630
#        257470
#
# Disc length: 3788 seconds
#
# Revision: 0
# Processed by: cddbd v1.5.2PL0 Copyright (c) Steve Scherf et al.
# Submitted via: ExactAudioCopyFreeDBPlugin 1.0
#
DISCID=a90eca10
DTITLE=Rapsody - Eve
DYEAR=2019
DGENRE=Hip-Hop
TTITLE0=Nina
TTITLE1=Cleo
TTITLE2=Aaliyah
TTITLE3=Oprah feat. Leikeli47
TTITLE4=Whoopi
TTITLE5=Serena
TTITLE6=Tyra
TTITLE7=Maya feat. K.Roosevelt
TTITLE8=Ibtihaj feat. GZA and D'Angelo
TTITLE9=Myrlie feat. Mereba
TTITLE10=Reyna's Interlude
TTITLE11=Michelle feat. Elle Varner
TTITLE12=Iman feat. Sir and JID
TTITLE13=Hatshepsut feat. Queen Latifah
TTITLE14=Sojourner feat. J. Cole
TTITLE15=Afeni feat. PJ Morton
EXTD=
EXTT0=
EXTT1=
EXTT2=
EXTT3=
EXTT4=
EXTT5=
EXTT6=
EXTT7=
EXTT8=
EXTT9=
EXTT10=
EXTT11=
EXTT12=
EXTT13=
EXTT14=
EXTT15=
PLAYORDER=
